<svg xmlns="http://www.w3.org/2000/svg" xmlns:xlink="http://www.w3.org/1999/xlink" class="icon" viewBox="0 0 1024 1024" id="card" fill="#f8f9fa"><path d="M771.2 1020H252.8c-45.6 0-83.2-37.6-83.2-83.2V87.2C169.6 41.6 207.2 4 252.8 4h517.6c45.6 0 83.2 37.6 83.2 83.2v849.6c0.8 45.6-36.8 83.2-82.4 83.2zM252.8 36c-28 0-51.2 23.2-51.2 51.2v849.6c0 28 23.2 51.2 51.2 51.2h517.6c28 0 51.2-23.2 51.2-51.2V87.2c0-28-23.2-51.2-51.2-51.2H252.8z" p-id="4460"/><path d="M512 717.6c-2.4 0-4-0.8-5.6-2.4C497.6 707.2 296 504.8 296 424c0-64.8 52.8-118.4 118.4-118.4 40 0 76 20 97.6 52 21.6-32.8 58.4-52 97.6-52C675.2 306.4 728 359.2 728 424c0 76.8-201.6 282.4-210.4 291.2-1.6 1.6-3.2 2.4-5.6 2.4zM414.4 322.4C357.6 322.4 312 368 312 424c0 59.2 139.2 212.8 200 274.4 60.8-62.4 200-217.6 200-274.4 0-56-45.6-102.4-102.4-102.4-38.4 0-73.6 21.6-91.2 56-2.4 5.6-11.2 5.6-14.4 0-16.8-33.6-51.2-55.2-89.6-55.2z" p-id="4461"/></svg>