<svg xmlns="http://www.w3.org/2000/svg" xmlns:xlink="http://www.w3.org/1999/xlink" class="icon" viewBox="0 0 1024 1024" id="casino"><path fill="#f8f9fa" d="M835.826629 804.371636c-6.424848 0.715179-13.211862 1.966417-20.35189 3.749789-7.140028 1.787295-13.564876 3.748482-19.279775 5.892713-7.140028 2.855488-13.923119 6.067912-20.347968 9.63858-1.429052-7.855207-1.072115-15.710414 1.073423-23.565622 1.425129-7.140028 4.27931-14.636991 8.565157-22.492199 4.28454-7.855207 11.424567-15.710414 21.424006-23.560392 17.850723-12.139747 39.091684-19.636711 63.728114-22.497428 24.632507-2.854181 47.662071 0 69.080847 8.570387 21.425313 8.570387 38.202613 23.3865 50.34236 44.44834 12.139747 21.06707 14.280055 49.806302 6.424848 86.22162-6.424848 29.279213-19.636711 55.878137-39.626435 79.795465-19.994954 23.922558-46.593878 42.308031-79.796772 55.162957-33.201587 12.849696-72.297193 18.922839-117.282898 18.207659-44.984397-0.715179-95.326757-10.709388-151.020542-29.99047-38.560857-13.568798-68.903033-30.52522-91.042218-50.878418-22.135263-20.34666-38.733441-41.235915-49.801072-62.654691-11.067631-21.420083-17.676831-41.594159-19.815832-60.516997-2.140309-18.921531-2.498552-33.737644-1.073423-44.44834 1.430359-10.709388 5.89402-23.922558 13.392292-39.631665 7.496964-15.705185 15.173049-30.70042 23.028256-44.984397 9.279029-17.135544 19.631481-34.628023 31.057356-52.482669 5.714899-9.280336 10.709388-18.207659 14.993927-26.778046 3.570668-7.8539 6.430078-15.703877 8.570387-23.559084s2.140309-15.352171 0-22.492199c-7.140028-18.564595-16.06735-32.84988-26.776738-42.845396-10.710695-9.994208-21.063147-17.49248-31.062585-22.492199-12.134517-4.999719-24.632507-7.855207-37.487434-8.570387-17.849416-0.713872-34.275009-2.854181-49.270244-6.424848-12.849696-3.56936-25.525501-8.212143-38.018262-13.921812-12.496683-5.714899-21.603127-14.636991-27.312796-26.778046-6.424848-12.139747-9.106444-24.63643-8.034329-37.486126 1.072115-12.854926 3.570668-25.526809 7.496964-38.023491 3.927604-12.49799 8.034329-24.458615 12.318869-35.88449 4.285847-11.424567 6.424848-21.420083 6.424848-29.989162 0-22.850442-12.139747-38.912563-36.414011-48.198129-31.419521-7.8539-54.985143-11.066324-70.69425-9.637272-15.705185 1.425129-26.772816 4.463661-33.202894 9.101215-6.424848 4.642783-9.637272 8.927323-9.637272 12.854926l0 1.609481c0 9.994208 1.251237 22.843905 3.748482 38.554319 2.497245 15.710414 1.251237 30.704342-3.748482 44.984397-3.570668 8.570387-8.391265 16.604716-14.459177 24.101679-6.071835 7.496964-11.245446 14.459177-15.531293 20.884025-5.714899 9.284259-10.530266 17.318588-14.45787 24.100372-3.927604 6.783092-5.537084 11.246753-4.821905 13.385754 1.430359 2.860718 4.821905 4.821905 10.174638 5.89402 5.356655 1.073423 9.46338 2.31943 12.317561 3.748482 3.570668 2.140309 5.88879 5.531854 6.962213 10.174638 1.072115 4.641476 3.748482 8.748201 8.033021 12.318869 7.140028 7.140028 11.425875 13.206632 12.854926 18.206352 0.70995 2.855488 0.70995 5.357963 0 7.498271 0 5.709669 0.353014 12.496683 1.068193 20.35189 0.715179 6.424848 1.608173 13.743998 2.680289 21.956141 1.068193 8.212143 2.676366 16.241242 4.816675 24.09645 4.28454 18.564595 9.285566 31.598643 14.995235 39.095607 5.714899 7.498271 12.675805 12.139747 20.887948 13.923119 8.213451 1.787295 18.028537 1.965109 29.454412 0.536058 11.424567-1.430359 25.346379-2.140309 41.771973-2.140309 12.139747 0.70995 24.632507 1.066886 37.487434 1.066886 12.849696 0 24.274264 2.860718 34.275009 8.570387 9.994208 5.714899 17.849416 13.564876 23.559084 23.565622 5.714899 9.994208 10.357682 19.994954 13.927042 29.989162 2.855488 12.139747 4.995797 24.632507 6.426156 37.487434 2.139001 16.424286 3.212424 32.844651 3.212424 49.270244 0 14.278748-0.715179 29.810041-2.140309 46.587341-1.430359 16.78253-4.999719 33.385938-10.710695 49.806302-12.139747 33.55983-29.989162 58.554503-53.553477 74.974867-23.565622 16.424286-48.913308 27.134982-76.04829 32.134701-28.558803 5.709669-55.693785 6.424848-81.398408 2.140309-25.70593-4.285847-48.913308-11.425875-69.622134-21.420083-20.704904-10.000746-37.666555-22.135263-50.874495-36.420548-13.211862-14.278748-21.246191-28.558803-24.100372-42.838859-2.140309-11.425875-2.31943-22.67132-0.536058-33.738952 1.787295-11.067631 4.463661-21.777019 8.033021-32.134701 3.570668-10.352452 7.855207-20.168846 12.854926-29.453105 4.995797-9.280336 9.280336-18.207659 12.849696-26.778046 6.430078-13.564876 10.357682-25.525501 11.782811-35.877953 1.430359-10.352452 1.430359-19.10196 0-26.241988-1.425129-7.8539-4.28454-14.993927-8.570387-21.418776-6.424848-7.145258-13.206632-14.643529-20.34666-22.493506-5.714899-7.14395-11.782811-14.820036-18.207659-23.028256-6.430078-8.212143-11.782811-17.318588-16.06735-27.312796-14.280055-29.27529-21.777019-56.410272-22.492199-81.399715 0-10.715925 0.179122-23.743436 0.536058-39.096914 0.358243-15.352171 3.033302-29.810041 8.034329-43.374917 4.28454-11.425875 14.816113-26.598924 31.593413-45.521763 16.78253-18.921531 35.526247-43.380146 56.23115-73.370616 4.28454-8.570387 8.033021-17.49248 11.245446-26.776738 3.217654-9.280336 5.714899-17.850723 7.496964-25.70593 1.788602-7.8539 3.03984-14.636991 3.749789-20.35189 0.715179-5.709669 1.072115-9.637272 1.072115-11.777581 0-7.140028-0.356936-14.995235-1.072115-23.564314-0.70995-8.570387-1.425129-17.49248-2.140309-26.778046 0-4.28454-0.356936-11.424567-1.072115-21.420083-0.715179-9.999438 0.177814-21.06707 2.680289-33.201587 2.498552-12.139747 6.962213-24.458615 13.387062-36.956606 6.424848-12.491453 16.424286-23.738206 29.989162-33.737644 10.710695-7.855207 23.3865-13.387062 38.023491-16.599486 14.638299-3.212424 28.380989-5.178841 41.235915-5.892713 14.995235-0.715179 30.705649-0.358243 47.124706 1.072115 13.570106-4.999719 27.850161-8.927323 42.845396-11.782811 12.854926-2.854181 27.850161-5.352733 44.984397-7.496964 17.135544-2.140309 34.990189-3.212424 53.554784-3.212424 62.119941 1.429052 114.244366 10.88851 156.374583 28.380989 42.128909 17.497709 76.760855 38.916485 103.895836 64.264172 27.129752 25.352917 47.839885 52.839605 62.119941 82.471831C789.054936 204.754435 799.412618 232.24243 805.837466 257.59404c6.424848 25.347687 10.17333 46.76777 11.246753 64.260249 1.072115 17.496402 1.602943 26.597617 1.602943 27.312796 0.715179 12.139747 4.999719 23.207378 12.854926 33.202894 7.855207 9.999438 16.956422 20.174076 27.314103 30.52522 10.352452 10.352452 21.06184 20.889255 32.129471 31.598643 11.067631 10.710695 20.531012 22.493506 28.386219 35.343203 14.995235 27.134982 23.202148 51.414475 24.632507 72.834559 1.429052 21.420083-1.430359 40.341614-8.570387 56.767208-7.140028 16.424286-17.134236 30.52522-29.989162 42.308031-12.851004 11.782811-25.883745 21.599205-39.091684 29.453105-13.211862 7.855207-25.352917 13.923119-36.41924 18.207659-11.067631 4.285847-18.028537 7.140028-20.884025 8.570387-23.564314 10.709388-41.594159 22.492199-54.090842 35.341895-12.49276 12.854926-20.884025 25.709853-25.168565 38.559549-4.28454 12.854926-5.178841 25.347687-2.676366 37.487434 2.497245 12.139747 7.676085 22.492199 15.531293 31.062585 4.994489 6.424848 11.424567 11.782811 19.274545 16.06735 7.855207 4.280617 15.888229 7.496964 24.101679 9.637272 8.212143 2.140309 16.06735 3.391546 23.564314 3.748482 7.498271 0.358243 13.743998-0.177814 18.743717-1.608173 11.424567-2.140309 20.884025-7.319149 28.380989-15.526063 7.496964-8.212143 11.961933-16.961652 13.390984-26.240681 1.425129-9.285566-0.536058-17.140773-5.89402-23.565622C858.856192 806.517174 849.391505 803.657764 835.826629 804.371636L835.826629 804.371636zM835.826629 804.371636" p-id="7932"/></svg>