<svg xmlns="http://www.w3.org/2000/svg" xmlns:xlink="http://www.w3.org/1999/xlink" class="icon" viewBox="0 0 1024 1024" id="promotion"><path fill="#f8f9fa" d="M997.286957 195.895652 761.321739 195.895652c13.356522-24.486957 20.034783-53.426087 15.582609-89.043478-4.452174-35.617391-20.034783-64.556522-46.747826-82.365217-44.521739-31.165217-100.173913-17.808696-104.626087-17.808696-33.391304 4.452174-84.591304 33.391304-111.304348 100.173913-26.713043-66.782609-77.913043-95.721739-109.078261-100.173913-6.678261-2.226087-62.330435-13.356522-106.852174 17.808696-26.713043 17.808696-42.295652 44.521739-46.747826 82.365217-4.452174 35.617391 0 64.556522 15.582609 89.043478L26.713043 195.895652C11.130435 195.895652 0 207.026087 0 222.608696l0 307.2C0 545.391304 11.130435 556.521739 26.713043 556.521739l48.973913 0 0 436.313043c0 15.582609 13.356522 26.713043 26.713043 26.713043l814.747826 0c15.582609 0 26.713043-13.356522 26.713043-26.713043L943.86087 558.747826l51.2 0c15.582609 0 26.713043-13.356522 26.713043-26.713043L1021.773913 222.608696C1024 207.026087 1012.869565 195.895652 997.286957 195.895652zM636.66087 62.330435c11.130435-2.226087 42.295652-4.452174 62.330435 8.904348 13.356522 8.904348 20.034783 22.26087 22.26087 44.521739 8.904348 69.008696-35.617391 77.913043-46.747826 80.13913-2.226087 0-2.226087 0-4.452174 2.226087l-120.208696 0C556.521739 77.913043 632.208696 62.330435 636.66087 62.330435zM576.556522 963.895652l-133.565217 0L442.991304 251.547826l133.565217 0L576.556522 963.895652zM349.495652 193.669565c0 0-22.26087-4.452174-35.617391-20.034783-11.130435-13.356522-13.356522-33.391304-11.130435-60.104348 2.226087-20.034783 11.130435-35.617391 22.26087-44.521739 20.034783-13.356522 53.426087-11.130435 64.556522-8.904348 4.452174 0 77.913043 17.808696 82.365217 133.565217l-120.208696 0C353.947826 195.895652 351.721739 193.669565 349.495652 193.669565zM53.426087 251.547826l333.913043 0 0 251.547826-333.913043 0L53.426087 251.547826zM129.113043 556.521739l258.226087 0 0 407.373913L129.113043 963.895652 129.113043 556.521739zM890.434783 963.895652 632.208696 963.895652 632.208696 558.747826 890.434783 558.747826 890.434783 963.895652zM970.573913 503.095652 632.208696 503.095652 632.208696 251.547826l336.13913 0L968.347826 503.095652z" p-id="14328"/></svg>